#!OML:ASF G:\JayActor3\Patient Classification 1\Patient 1\Session 5\male.ASF
:FULLY-SPECIFIED
:DEGREES
1193
root 70.8176 15.9127 -7.42749 -36.7103 -90.2899 37.5613
lowerback 4.09344 -0.782779 2.38165
upperback 1.65271 -0.986237 -1.11404
thorax -0.656329 -0.493594 -2.43434
lowerneck -8.10674 1.62376 2.35311
upperneck 17.797 1.76287 -0.791204
head 6.78868 0.838754 -0.512494
rclavicle 3.18055e-015 -3.57812e-015
rhumerus -31.0302 -1.58731 -89.7028
rradius 28.9607
rwrist 0.301464
rhand -17.467 -11.3464
rfingers 7.12502
rthumb 8.7847 -41.1436
lclavicle 3.18055e-015 -3.57812e-015
lhumerus -29.6059 8.86263 81.7133
lradius 24.9571
lwrist 17.045
lhand -20.2559 14.2559
lfingers 7.12502
lthumb 6.09275 44.1483
rfemur -4.10153 1.8664 24.5571
rtibia 29.7654
rfoot -34.4329 -8.37718
rtoes 6.65874
lfemur -13.7204 2.38466 -19.3989
ltibia 18.4214
lfoot -13.0192 -2.06978
ltoes 44.9531
1194
root 70.867 15.919 -7.43685 -40.0875 -90.2101 40.9608
lowerback 4.029 -0.827557 2.34735
upperback 1.748 -1.04936 -1.02895
thorax -0.524176 -0.523093 -2.3262
lowerneck -8.22031 1.67993 2.40436
upperneck 17.9283 1.86327 -0.986587
head 6.85487 0.873312 -0.574653
rclavicle 1.16538e-014 -2.18663e-015
rhumerus -30.9535 -1.1042 -89.6895
rradius 28.7839
rwrist 0.105504
rhand -17.3923 -11.3805
rfingers 7.12502
rthumb 8.85676 -41.1746
lclavicle 1.16538e-014 -2.18663e-015
lhumerus -29.4909 8.92939 81.8635
lradius 24.9045
lwrist 17.2388
lhand -20.1627 14.1653
lfingers 7.12502
lthumb 6.18271 44.0551
rfemur -4.34235 1.71297 24.5413
rtibia 29.7952
rfoot -34.2769 -8.35144
rtoes 6.97862
lfemur -13.9774 2.43916 -19.4726
ltibia 18.5578
lfoot -13.3573 -1.82634
ltoes 45.3099
1195
root 70.9161 15.9244 -7.44726 -60.5781 -90.1234 61.4634
lowerback 4.02402 -0.880079 2.30624
upperback 1.81416 -1.1215 -0.944412
thorax -0.455277 -0.558334 -2.21351
lowerneck -8.2845 1.72881 2.5004
upperneck 18.0466 1.9499 -1.19495
head 6.90884 0.90271 -0.650016
rclavicle -4.05024e-015 -1.78906e-015
rhumerus -30.9373 -0.696897 -89.6649
rradius 28.6368
rwrist -0.0150378
rhand -17.3423 -11.435
rfingers 7.12502
rthumb 8.905 -41.2271
lclavicle -4.05024e-015 -1.78906e-015
lhumerus -29.4352 8.84446 82.0397
lradius 24.9022
lwrist 17.4994
lhand -20.0639 14.1311
lfingers 7.12502
lthumb 6.27811 44.018
rfemur -4.56407 1.60864 24.5459
rtibia 29.822
rfoot -34.1122 -8.34332
rtoes 7.32402
lfemur -14.2388 2.56221 -19.5393
ltibia 18.7458
lfoot -13.738 -1.61541
ltoes 45.6405
1196
root 70.9647 15.9284 -7.45869 -125.708 -90.1146 126.574
lowerback 4.08945 -0.944965 2.26461
upperback 1.86025 -1.20848 -0.857754
thorax -0.446708 -0.602061 -2.09647
lowerneck -8.28323 1.7746 2.621
upperneck 18.1381 2.03064 -1.40925
head 6.94318 0.930233 -0.732453
rclavicle -9.38015e-015 3.77691e-015
rhumerus -30.9789 -0.444834 -89.5988
rradius 28.5303
rwrist 0.0546471
rhand -17.2542 -11.5306
rfingers 7.12502
rthumb 8.99008 -41.3191
lclavicle -9.38015e-015 3.77691e-015
lhumerus -29.4426 8.62625 82.2369
lradius 24.955
lwrist 17.8213
lhand -19.9678 14.2109
lfingers 7.12502
lthumb 6.37092 44.0951
rfemur -4.74242 1.54211 24.57
rtibia 29.8457
rfoot -33.9384 -8.33764
rtoes 7.66935
lfemur -14.4686 2.73309 -19.5953
ltibia 18.9829
lfoot -14.1844 -1.44167
ltoes 45.9709
1197
root 71.0119 15.9308 -7.47046 -157.452 -90.2251 158.264
lowerback 4.20069 -1.01153 2.22981
upperback 1.89604 -1.2965 -0.774814
thorax -0.474138 -0.646867 -1.98604
lowerneck -8.2287 1.81775 2.76005
upperneck 18.2093 2.10499 -1.61894
head 6.96186 0.956279 -0.817499
rclavicle 6.85807e-015 -5.96354e-015
rhumerus -31.0728 -0.36084 -89.4912
rradius 28.4565
rwrist 0.259806
rhand -17.1914 -11.6096
rfingers 7.12502
rthumb 9.05061 -41.3954
lclavicle 6.85807e-015 -5.96354e-015
lhumerus -29.4965 8.27925 82.4578
lradius 25.0387
lwrist 18.1892
lhand -19.8989 14.3296
lfingers 7.12502
lthumb 6.43742 44.2117
rfemur -4.86622 1.50123 24.602
rtibia 29.8511
rfoot -33.7479 -8.32209
rtoes 8.01435
lfemur -14.6499 2.92943 -19.648
ltibia 19.2707
lfoot -14.7188 -1.31248
ltoes 46.3269
1198
root 71.0573 15.9335 -7.48202 -167.504 -90.3683 168.244
lowerback 4.32269 -1.07447 2.19862
upperback 1.92907 -1.3794 -0.695332
thorax -0.509917 -0.689228 -1.88099
lowerneck -8.13042 1.85856 2.90957
upperneck 18.2573 2.17479 -1.82424
head 6.96553 0.981397 -0.903644
rclavicle -2.8948e-015 3.08116e-015
rhumerus -31.1843 -0.438983 -89.3387
rradius 28.3905
rwrist 0.553883
rhand -17.171 -11.748
rfingers 7.12502
rthumb 9.07034 -41.533
lclavicle -2.8948e-015 3.08116e-015
lhumerus -29.5817 7.80663 82.7119
lradius 25.1469
lwrist 18.6
lhand -19.8652 14.4806
lfingers 7.12502
lthumb 6.46999 44.3618
rfemur -4.95384 1.47488 24.6294
rtibia 29.8449
rfoot -33.5447 -8.28928
rtoes 8.3473
lfemur -14.8201 3.12521 -19.7008
ltibia 19.6237
lfoot -15.3132 -1.18742
ltoes 46.6908
1199
root 71.0999 15.9373 -7.49324 -170.013 -90.5172 170.642
lowerback 4.45742 -1.13983 2.17489
upperback 1.9824 -1.46547 -0.602515
thorax -0.531563 -0.733047 -1.76604
lowerneck -8.04599 1.90848 3.04502
upperneck 18.3 2.25883 -2.02521
head 6.97033 1.01297 -0.984775
rclavicle 1.35546e-014 -1.09332e-015
rhumerus -31.2637 -0.582954 -89.1564
rradius 28.2991
rwrist 0.855287
rhand -17.227 -11.9552
rfingers 7.12502
rthumb 9.01628 -41.7425
lclavicle 1.35546e-014 -1.09332e-015
lhumerus -29.6676 7.33481 82.9802
lradius 25.2676
lwrist 18.957
lhand -19.8651 14.7078
lfingers 7.12502
lthumb 6.47005 44.589
rfemur -4.9794 1.46315 24.6741
rtibia 29.8201
rfoot -33.3409 -8.25389
rtoes 8.67447
lfemur -14.977 3.29238 -19.7239
ltibia 20.0651
lfoot -16.0223 -1.02905
ltoes 46.9757
1200
root 71.1399 15.9353 -7.50445 -167.114 -90.681 167.542
lowerback 4.66199 -1.20913 2.18716
upperback 2.06227 -1.55466 -0.486371
thorax -0.564872 -0.778653 -1.64578
lowerneck -7.99021 1.97049 3.15681
upperneck 18.3686 2.35902 -2.20689
head 6.98879 1.05206 -1.05427
rclavicle 1.09021e-014 -4.67144e-015
rhumerus -31.3166 -0.741432 -88.9593
rradius 28.1568
rwrist 1.10819
rhand -17.3651 -12.2274
rfingers 7.12502
rthumb 8.88299 -42.0204
lclavicle 1.09021e-014 -4.67144e-015
lhumerus -29.7843 6.90521 83.2453
lradius 25.4201
lwrist 19.2236
lhand -19.8806 14.9372
lfingers 7.12502
lthumb 6.45506 44.8188
rfemur -4.89938 1.46294 24.7874
rtibia 29.7973
rfoot -33.1674 -8.24801
rtoes 9.0215
lfemur -14.9809 3.5256 -19.7009
ltibia 20.6148
lfoot -16.8495 -1.04276
ltoes 47.1888
1201
root 71.1775 15.9293 -7.51597 -162.446 -90.8803 162.599
lowerback 4.914 -1.28145 2.24782
upperback 2.16374 -1.64539 -0.356868
thorax -0.602935 -0.825102 -1.53763
lowerneck -7.9203 2.0326 3.26818
upperneck 18.4323 2.45842 -2.38065
head 7.00337 1.09147 -1.12138
rclavicle 8.2185e-015 2.75814e-015
rhumerus -31.3485 -0.891941 -88.7557
rradius 27.9534
rwrist 1.34734
rhand -17.4888 -12.5148
rfingers 7.12502
rthumb 8.76363 -42.3128
lclavicle 8.2185e-015 2.75814e-015
lhumerus -29.9164 6.43454 83.5211
lradius 25.5808
lwrist 19.442
lhand -19.943 15.1561
lfingers 7.12502
lthumb 6.39486 45.0395
rfemur -4.73787 1.46406 24.9696
rtibia 29.787
rfoot -33.0435 -8.278
rtoes 9.38928
lfemur -14.8921 3.798 -19.6199
ltibia 21.2817
lfoot -17.7286 -1.1563
ltoes 47.318
1202
root 71.2141 15.9175 -7.52719 -157.637 -91.1065 157.459
lowerback 5.21056 -1.36481 2.33909
upperback 2.28126 -1.74869 -0.207891
thorax -0.649681 -0.878133 -1.42449
lowerneck -7.83596 2.10016 3.37139
upperneck 18.4876 2.56729 -2.55604
head 7.01317 1.13481 -1.18701
rclavicle -5.57529e-015 6.53505e-015
rhumerus -31.3488 -0.961016 -88.5674
rradius 27.6838
rwrist 1.47937
rhand -17.6393 -12.8352
rfingers 7.12502
rthumb 8.6184 -42.6393
lclavicle -5.57529e-015 6.53505e-015
lhumerus -30.0695 5.95155 83.8067
lradius 25.7545
lwrist 19.644
lhand -20.0505 15.3453
lfingers 7.12502
lthumb 6.2911 45.2319
rfemur -4.53601 1.45922 25.2044
rtibia 29.8215
rfoot -32.9722 -8.32901
rtoes 9.74721
lfemur -14.7099 4.09145 -19.4869
ltibia 22.0433
lfoot -18.6354 -1.39798
ltoes 47.4331
1203
root 71.2496 15.9029 -7.5376 -154.341 -91.3486 153.828
lowerback 5.50578 -1.45364 2.43803
upperback 2.40054 -1.85866 -0.0555746
thorax -0.693794 -0.934635 -1.31113
lowerneck -7.75508 2.17155 3.4778
upperneck 18.547 2.68132 -2.73291
head 7.02545 1.18067 -1.25328
rclavicle -2.51587e-015 1.31695e-015
rhumerus -31.3383 -0.970816 -88.3873
rradius 27.3739
rwrist 1.56154
rhand -17.7492 -13.0738
rfingers 7.12502
rthumb 8.51234 -42.8823
lclavicle -2.51587e-015 1.31695e-015
lhumerus -30.2297 5.42905 84.1022
lradius 25.9308
lwrist 19.868
lhand -20.1781 15.4842
lfingers 7.12502
lthumb 6.1679 45.3744
rfemur -4.34717 1.44238 25.4442
rtibia 29.8987
rfoot -32.9361 -8.37824
rtoes 10.086
lfemur -14.4912 4.36756 -19.3358
ltibia 22.8655
lfoot -19.5119 -1.70571
ltoes 47.5617
1204
root 71.2839 15.8878 -7.54633 -152.566 -91.5735 151.754
lowerback 5.74669 -1.53234 2.54115
upperback 2.50765 -1.9556 0.0763354
thorax -0.720094 -0.984329 -1.22243
lowerneck -7.64461 2.23641 3.59429
upperneck 18.6012 2.7826 -2.89461
head 7.03065 1.2225 -1.31773
rclavicle 1.09083e-014 3.32964e-015
rhumerus -31.3501 -1.02245 -88.1967
rradius 27.0612
rwrist 1.69427
rhand -17.7765 -13.2299
rfingers 7.12502
rthumb 8.48604 -43.0394
lclavicle 1.09083e-014 3.32964e-015
lhumerus -30.4112 4.85386 84.3943
lradius 26.1167
lwrist 20.1415
lhand -20.329 15.5444
lfingers 7.12502
lthumb 6.0222 45.4388
rfemur -4.21277 1.41334 25.6434
rtibia 30.0153
rfoot -32.9157 -8.39294
rtoes 10.3817
lfemur -14.2923 4.58341 -19.1931
ltibia 23.6919
lfoot -20.3223 -2.02173
ltoes 47.7449
1205
root 71.3172 15.874 -7.55286 -151.815 -91.7612 150.754
lowerback 5.93452 -1.59923 2.63988
upperback 2.59831 -2.03768 0.185009
thorax -0.733658 -1.0263 -1.15683
lowerneck -7.53621 2.29683 3.71624
upperneck 18.6678 2.87417 -3.04121
head 7.04004 1.26118 -1.37913
rclavicle -1.03368e-014 2.5842e-015
rhumerus -31.389 -1.1054 -88.004
rradius 26.7472
rwrist 1.82959
rhand -17.8348 -13.1434
rfingers 7.12502
rthumb 8.42981 -42.9552
lclavicle -1.03368e-014 2.5842e-015
lhumerus -30.5816 4.15813 84.7038
lradius 26.2957
lwrist 20.5163
lhand -20.4295 15.737
lfingers 7.12502
lthumb 5.92518 45.6342
rfemur -4.13514 1.36687 25.7838
rtibia 30.1438
rfoot -32.888 -8.36496
rtoes 10.6225
lfemur -14.1139 4.73338 -19.073
ltibia 24.4831
lfoot -21.0497 -2.30885
ltoes 47.9583
